<svg xmlns="http://www.w3.org/2000/svg" viewBox="0 0 200 200" width="200" height="200">
  <!-- Background Circle -->
  <circle cx="100" cy="100" r="95" fill="green" stroke="gold" stroke-width="5"/>

  <!-- Ship Wheel -->
  <circle cx="100" cy="100" r="60" fill="none" stroke="gold" stroke-width="5"/>
  <line x1="100" y1="10" x2="100" y2="40" stroke="gold" stroke-width="5"/>
  <line x1="100" y1="160" x2="100" y2="190" stroke="gold" stroke-width="5"/>
  <line x1="40" y1="100" x2="10" y2="100" stroke="gold" stroke-width="5"/>
  <line x1="160" y1="100" x2="190" y2="100" stroke="gold" stroke-width="5"/>
  <line x1="38" y1="38" x2="18" y2="18" stroke="gold" stroke-width="5"/>
  <line x1="162" y1="38" x2="182" y2="18" stroke="gold" stroke-width="5"/>
  <line x1="38" y1="162" x2="18" y2="182" stroke="gold" stroke-width="5"/>
  <line x1="162" y1="162" x2="182" y2="182" stroke="gold" stroke-width="5"/>

  <!-- Anchor -->
  <path d="M85,70 Q100,40 115,70 L115,115 Q130,130 115,140 Q100,150 85,140 Q70,130 85,115 Z" fill="gold" />
  <rect x="95" y="40" width="10" height="40" fill="gold" />
  
  <!-- Text -->
  <text x="50%" y="190" font-family="Arial" font-size="24" fill="gold" text-anchor="middle">Seagold Dormitory</text>
</svg>
