<svg xmlns="http://www.w3.org/2000/svg" xmlns:xlink="http://www.w3.org/1999/xlink" width="500" zoomAndPan="magnify" viewBox="0 0 375 374.999991" height="500" preserveAspectRatio="xMidYMid meet" version="1.0"><defs><clipPath id="8f96432f04"><path d="M 128 270 L 249 270 L 249 328.621094 L 128 328.621094 Z M 128 270 " clip-rule="nonzero"/></clipPath><clipPath id="ac7a7da0e0"><path d="M 39.292969 89 L 108 89 L 108 159 L 39.292969 159 Z M 39.292969 89 " clip-rule="nonzero"/></clipPath><clipPath id="e66f11a8b2"><path d="M 267 89 L 335.542969 89 L 335.542969 159 L 267 159 Z M 267 89 " clip-rule="nonzero"/></clipPath></defs><g clip-path="url(#8f96432f04)"><path fill="#81a69b" d="M 138.945312 279.261719 C 138.945312 279.261719 128.042969 302.429688 128.851562 328.460938 L 248.847656 328.535156 C 248.847656 328.535156 250.015625 306.003906 236.8125 279.171875 C 226.90625 259.042969 138.945312 279.261719 138.945312 279.261719 Z M 138.945312 279.261719 " fill-opacity="1" fill-rule="evenodd"/></g><path fill="#eb9c62" d="M 187.398438 164.671875 L 208.082031 153.125 C 208.082031 153.125 234.214844 154.914062 243.125 160.574219 C 252.03125 166.234375 255.367188 178.152344 256.605469 191.363281 C 257.847656 204.578125 258.890625 218.640625 259.429688 219.183594 C 259.972656 219.726562 272.914062 198.007812 274.582031 197.109375 C 276.246094 196.207031 281.9375 200.929688 286.4375 206.808594 C 290.933594 212.6875 296.425781 223.050781 296.054688 225.492188 C 295.683594 227.929688 292.507812 231.199219 289.375 235.507812 C 286.242188 239.816406 276.648438 252.484375 273.300781 257.066406 C 269.957031 261.648438 264.703125 268.25 260.125 271.652344 C 255.546875 275.050781 247 272.414062 243.261719 270.003906 C 239.519531 267.59375 236.621094 259.304688 234.921875 252.566406 C 234.921875 252.566406 233.808594 259.3125 235.136719 266.082031 C 236.464844 272.851562 238.671875 280.84375 239.160156 283.847656 C 239.160156 283.847656 224.242188 288.3125 188.839844 288.777344 L 188.839844 288.804688 C 188.355469 288.804688 186.441406 288.804688 185.957031 288.804688 L 185.957031 288.777344 C 150.558594 288.3125 135.636719 283.847656 135.636719 283.847656 C 136.125 280.84375 138.332031 272.855469 139.660156 266.082031 C 140.988281 259.3125 139.878906 252.566406 139.878906 252.566406 C 138.179688 259.304688 135.277344 267.59375 131.539062 270.003906 C 127.796875 272.414062 119.253906 275.050781 114.675781 271.652344 C 110.097656 268.25 104.839844 261.648438 101.496094 257.066406 C 98.148438 252.484375 88.558594 239.816406 85.425781 235.507812 C 82.292969 231.199219 79.117188 227.929688 78.742188 225.492188 C 78.371094 223.050781 83.863281 212.6875 88.363281 206.808594 C 92.859375 200.929688 98.550781 196.207031 100.214844 197.109375 C 101.882812 198.007812 114.828125 219.726562 115.367188 219.183594 C 115.910156 218.640625 116.949219 204.578125 118.191406 191.363281 C 119.433594 178.152344 122.765625 166.234375 131.675781 160.574219 C 140.585938 154.914062 165.746094 152.957031 165.746094 152.957031 Z M 187.398438 164.671875 " fill-opacity="1" fill-rule="evenodd"/><path fill="#956368" d="M 115.636719 220.582031 C 115.636719 220.582031 117.175781 221.597656 117.660156 223.449219 C 117.804688 224.003906 117.835938 224.667969 117.914062 225.410156 C 118.042969 226.644531 118.273438 228.082031 119.164062 229.652344 C 120.542969 232.085938 123.539062 236.125 123.746094 243.953125 C 123.753906 244.269531 124.015625 244.523438 124.332031 244.511719 C 124.652344 244.503906 124.902344 244.238281 124.894531 243.921875 C 124.679688 235.804688 121.59375 231.605469 120.164062 229.082031 C 119.371094 227.679688 119.171875 226.394531 119.058594 225.292969 C 118.972656 224.480469 118.929688 223.765625 118.773438 223.15625 C 118.175781 220.871094 116.269531 219.617188 116.269531 219.617188 C 116.003906 219.445312 115.644531 219.519531 115.472656 219.785156 C 115.296875 220.050781 115.371094 220.40625 115.636719 220.582031 Z M 115.636719 220.582031 " fill-opacity="1" fill-rule="evenodd"/><path fill="#956368" d="M 259.160156 220.582031 C 259.160156 220.582031 257.621094 221.597656 257.136719 223.449219 C 256.992188 224.003906 256.960938 224.667969 256.882812 225.410156 C 256.757812 226.644531 256.523438 228.082031 255.632812 229.652344 C 254.253906 232.085938 251.261719 236.125 251.054688 243.953125 C 251.046875 244.269531 250.78125 244.523438 250.464844 244.511719 C 250.148438 244.503906 249.898438 244.238281 249.902344 243.921875 C 250.117188 235.804688 253.203125 231.605469 254.632812 229.082031 C 255.429688 227.679688 255.628906 226.394531 255.738281 225.292969 C 255.824219 224.480469 255.867188 223.765625 256.023438 223.15625 C 256.625 220.871094 258.53125 219.617188 258.53125 219.617188 C 258.796875 219.445312 259.152344 219.519531 259.328125 219.785156 C 259.5 220.050781 259.425781 220.40625 259.160156 220.582031 Z M 259.160156 220.582031 " fill-opacity="1" fill-rule="evenodd"/><path fill="#956368" d="M 119.171875 228.378906 C 119.171875 228.378906 120.679688 228.164062 122.375 230.054688 C 124.75 232.703125 127.417969 235.414062 129.054688 238.757812 C 129.195312 239.042969 129.539062 239.160156 129.824219 239.019531 C 130.109375 238.882812 130.226562 238.535156 130.085938 238.25 C 128.402344 234.8125 125.671875 232.011719 123.230469 229.285156 C 121.015625 226.8125 118.964844 227.242188 118.964844 227.242188 C 118.65625 227.300781 118.445312 227.601562 118.503906 227.914062 C 118.558594 228.226562 118.859375 228.433594 119.171875 228.378906 Z M 119.171875 228.378906 " fill-opacity="1" fill-rule="evenodd"/><path fill="#956368" d="M 255.628906 228.378906 C 255.628906 228.378906 254.117188 228.164062 252.421875 230.054688 C 250.050781 232.703125 247.382812 235.414062 245.746094 238.757812 C 245.605469 239.042969 245.261719 239.160156 244.976562 239.019531 C 244.691406 238.882812 244.574219 238.535156 244.710938 238.25 C 246.394531 234.8125 249.125 232.011719 251.566406 229.285156 C 253.785156 226.8125 255.832031 227.242188 255.832031 227.242188 C 256.144531 227.300781 256.351562 227.601562 256.296875 227.914062 C 256.238281 228.226562 255.941406 228.433594 255.628906 228.378906 Z M 255.628906 228.378906 " fill-opacity="1" fill-rule="evenodd"/><path fill="#956368" d="M 134.53125 204.429688 C 134.53125 204.429688 133.140625 212.878906 134.621094 223.703125 C 136.261719 235.71875 138.210938 245.140625 139.238281 251.425781 C 139.289062 251.738281 139.582031 251.953125 139.894531 251.902344 C 140.210938 251.851562 140.421875 251.554688 140.371094 251.238281 C 139.347656 244.960938 137.398438 235.550781 135.757812 223.550781 C 134.308594 212.914062 135.667969 204.617188 135.667969 204.617188 C 135.71875 204.304688 135.503906 204.007812 135.191406 203.957031 C 134.878906 203.902344 134.585938 204.117188 134.53125 204.429688 Z M 134.53125 204.429688 " fill-opacity="1" fill-rule="evenodd"/><path fill="#956368" d="M 240.265625 204.429688 C 240.265625 204.429688 241.65625 212.878906 240.175781 223.703125 C 238.539062 235.71875 236.585938 245.140625 235.5625 251.425781 C 235.511719 251.738281 235.214844 251.953125 234.902344 251.902344 C 234.589844 251.851562 234.375 251.554688 234.425781 251.238281 C 235.449219 244.960938 237.398438 235.550781 239.039062 223.550781 C 240.488281 212.914062 239.132812 204.617188 239.132812 204.617188 C 239.078125 204.304688 239.292969 204.007812 239.605469 203.957031 C 239.917969 203.902344 240.214844 204.117188 240.265625 204.429688 Z M 240.265625 204.429688 " fill-opacity="1" fill-rule="evenodd"/><path fill="#956368" d="M 79.96875 225.613281 C 79.96875 225.613281 86.230469 222.273438 90.753906 215.148438 C 90.921875 214.882812 90.84375 214.523438 90.578125 214.355469 C 90.308594 214.183594 89.953125 214.261719 89.785156 214.53125 C 85.433594 221.375 79.425781 224.597656 79.425781 224.597656 C 79.148438 224.746094 79.039062 225.097656 79.191406 225.378906 C 79.339844 225.660156 79.6875 225.761719 79.96875 225.613281 Z M 79.96875 225.613281 " fill-opacity="1" fill-rule="evenodd"/><path fill="#956368" d="M 294.832031 225.613281 C 294.832031 225.613281 288.570312 222.273438 284.046875 215.148438 C 283.875 214.882812 283.953125 214.523438 284.222656 214.355469 C 284.488281 214.183594 284.84375 214.261719 285.015625 214.53125 C 289.363281 221.375 295.371094 224.597656 295.371094 224.597656 C 295.652344 224.746094 295.757812 225.097656 295.609375 225.378906 C 295.460938 225.660156 295.109375 225.761719 294.832031 225.613281 Z M 294.832031 225.613281 " fill-opacity="1" fill-rule="evenodd"/><path fill="#f5c2a9" d="M 88.933594 217.496094 C 88.933594 217.496094 96.761719 207.605469 98.667969 199.085938 C 98.75 198.6875 98.640625 198.277344 98.371094 197.972656 C 97.421875 196.882812 95.113281 194.085938 93.699219 191.140625 C 91.664062 186.90625 90.554688 183.203125 88.066406 179.445312 C 85.578125 175.695312 84.300781 173.964844 78.726562 172.183594 C 72.859375 170.3125 70.507812 168.886719 69.667969 170.539062 C 68.84375 172.171875 70.328125 175.066406 73.214844 176.535156 C 76.097656 178.007812 77.117188 180.253906 77.117188 180.253906 C 77.117188 180.253906 72.425781 180.574219 69.679688 179.96875 C 66.933594 179.359375 62.707031 177.136719 59.253906 175.078125 C 55.660156 172.9375 50.476562 171.285156 50.882812 174.9375 C 50.882812 174.9375 46.976562 172.640625 45.6875 174.753906 C 44.507812 176.6875 46.941406 178.605469 46.941406 178.605469 C 46.941406 178.605469 44.871094 178.515625 44.640625 180.519531 C 44.453125 182.171875 46.683594 183.816406 48.5625 185.042969 C 48.5625 185.042969 46.324219 185.792969 47.785156 188.25 C 49.246094 190.710938 53.980469 194.003906 57.191406 196.84375 C 60.402344 199.683594 63.976562 202.363281 67.847656 203.007812 C 74.417969 204.105469 78.824219 203.75 80.550781 205.28125 C 83.101562 207.542969 88.933594 217.496094 88.933594 217.496094 Z M 88.933594 217.496094 " fill-opacity="1" fill-rule="evenodd"/><path fill="#f5c2a9" d="M 285.867188 217.496094 C 285.867188 217.496094 278.035156 207.605469 276.132812 199.085938 C 276.050781 198.6875 276.160156 198.277344 276.429688 197.972656 C 277.375 196.882812 279.683594 194.085938 281.101562 191.140625 C 283.136719 186.90625 284.242188 183.203125 286.730469 179.445312 C 289.21875 175.695312 290.496094 173.964844 296.070312 172.183594 C 301.9375 170.3125 304.292969 168.886719 305.128906 170.539062 C 305.957031 172.171875 304.46875 175.066406 301.585938 176.535156 C 298.699219 178.007812 297.683594 180.253906 297.683594 180.253906 C 297.683594 180.253906 302.371094 180.574219 305.117188 179.96875 C 307.863281 179.359375 312.089844 177.136719 315.542969 175.078125 C 319.140625 172.9375 324.320312 171.285156 323.914062 174.9375 C 323.914062 174.9375 327.820312 172.640625 329.109375 174.753906 C 330.289062 176.6875 327.855469 178.605469 327.855469 178.605469 C 327.855469 178.605469 329.925781 178.515625 330.15625 180.519531 C 330.34375 182.171875 328.113281 183.816406 326.234375 185.042969 C 326.234375 185.042969 328.472656 185.792969 327.011719 188.25 C 325.550781 190.710938 320.816406 194.003906 317.605469 196.84375 C 314.394531 199.683594 310.824219 202.363281 306.949219 203.007812 C 300.378906 204.105469 295.976562 203.75 294.246094 205.28125 C 291.699219 207.542969 285.867188 217.496094 285.867188 217.496094 Z M 285.867188 217.496094 " fill-opacity="1" fill-rule="evenodd"/><path fill="#eb9c62" d="M 62.46875 193.269531 C 62.46875 193.269531 66.367188 193.238281 70.019531 194.75 C 70.3125 194.871094 70.648438 194.734375 70.769531 194.441406 C 70.890625 194.144531 70.753906 193.808594 70.457031 193.6875 C 66.589844 192.085938 62.460938 192.117188 62.460938 192.117188 C 62.144531 192.121094 61.886719 192.378906 61.890625 192.699219 C 61.890625 193.015625 62.152344 193.273438 62.46875 193.269531 Z M 49.324219 185.730469 C 49.324219 185.730469 50.210938 185.699219 51.730469 186.902344 C 53.503906 188.300781 59.136719 192.101562 59.136719 192.101562 C 59.398438 192.28125 59.757812 192.210938 59.933594 191.949219 C 60.113281 191.683594 60.042969 191.324219 59.777344 191.148438 C 59.777344 191.148438 54.199219 187.382812 52.445312 185.996094 C 50.4375 184.414062 49.214844 184.585938 49.214844 184.585938 C 48.898438 184.617188 48.667969 184.898438 48.699219 185.214844 C 48.726562 185.53125 49.007812 185.761719 49.324219 185.730469 Z M 77.019531 181.265625 C 77.019531 181.265625 79.601562 186.652344 82.671875 188.582031 C 82.941406 188.746094 83.296875 188.667969 83.464844 188.398438 C 83.636719 188.128906 83.554688 187.773438 83.285156 187.605469 C 80.421875 185.8125 78.058594 180.769531 78.058594 180.769531 C 77.921875 180.484375 77.578125 180.359375 77.292969 180.496094 C 77.003906 180.632812 76.882812 180.976562 77.019531 181.265625 Z M 47.859375 179.652344 C 47.859375 179.652344 50.589844 180.609375 60.308594 187.765625 C 60.566406 187.953125 60.925781 187.898438 61.113281 187.644531 C 61.304688 187.386719 61.246094 187.027344 60.992188 186.835938 C 51.046875 179.515625 48.234375 178.5625 48.234375 178.5625 C 47.933594 178.457031 47.605469 178.617188 47.503906 178.921875 C 47.398438 179.21875 47.558594 179.546875 47.859375 179.652344 Z M 51.542969 175.964844 C 51.542969 175.964844 60.175781 181.375 62.824219 183.085938 C 63.09375 183.257812 63.449219 183.179688 63.621094 182.910156 C 63.792969 182.644531 63.714844 182.289062 63.449219 182.117188 C 60.796875 180.402344 52.152344 174.988281 52.152344 174.988281 C 51.882812 174.820312 51.527344 174.902344 51.359375 175.171875 C 51.191406 175.441406 51.273438 175.796875 51.542969 175.964844 Z M 51.542969 175.964844 " fill-opacity="1" fill-rule="evenodd"/><path fill="#eb9c62" d="M 312.328125 193.269531 C 312.328125 193.269531 308.429688 193.238281 304.78125 194.75 C 304.488281 194.871094 304.148438 194.734375 304.027344 194.441406 C 303.90625 194.144531 304.046875 193.808594 304.339844 193.6875 C 308.207031 192.085938 312.339844 192.117188 312.339844 192.117188 C 312.65625 192.121094 312.910156 192.378906 312.90625 192.699219 C 312.90625 193.015625 312.644531 193.273438 312.328125 193.269531 Z M 325.472656 185.730469 C 325.472656 185.730469 324.589844 185.699219 323.066406 186.902344 C 321.292969 188.300781 315.664062 192.101562 315.664062 192.101562 C 315.398438 192.28125 315.042969 192.210938 314.863281 191.949219 C 314.6875 191.683594 314.757812 191.324219 315.019531 191.148438 C 315.019531 191.148438 320.597656 187.382812 322.355469 185.996094 C 324.359375 184.414062 325.582031 184.585938 325.582031 184.585938 C 325.902344 184.617188 326.132812 184.898438 326.101562 185.214844 C 326.070312 185.53125 325.789062 185.761719 325.472656 185.730469 Z M 297.78125 181.265625 C 297.78125 181.265625 295.199219 186.652344 292.125 188.582031 C 291.855469 188.746094 291.5 188.667969 291.332031 188.398438 C 291.164062 188.128906 291.246094 187.773438 291.515625 187.605469 C 294.375 185.8125 296.742188 180.769531 296.742188 180.769531 C 296.878906 180.484375 297.21875 180.359375 297.507812 180.496094 C 297.792969 180.632812 297.914062 180.976562 297.78125 181.265625 Z M 326.9375 179.652344 C 326.9375 179.652344 324.207031 180.609375 314.488281 187.765625 C 314.234375 187.953125 313.871094 187.898438 313.683594 187.644531 C 313.496094 187.386719 313.550781 187.027344 313.808594 186.835938 C 323.753906 179.515625 326.5625 178.5625 326.5625 178.5625 C 326.863281 178.457031 327.191406 178.617188 327.292969 178.921875 C 327.398438 179.21875 327.238281 179.546875 326.9375 179.652344 Z M 323.253906 175.964844 C 323.253906 175.964844 314.621094 181.375 311.972656 183.085938 C 311.707031 183.257812 311.351562 183.179688 311.179688 182.910156 C 311.007812 182.644531 311.082031 182.289062 311.351562 182.117188 C 314.003906 180.402344 322.644531 174.988281 322.644531 174.988281 C 322.914062 174.820312 323.269531 174.902344 323.4375 175.171875 C 323.605469 175.441406 323.523438 175.796875 323.253906 175.964844 Z M 323.253906 175.964844 " fill-opacity="1" fill-rule="evenodd"/><g clip-path="url(#ac7a7da0e0)"><path fill="#f5ede9" d="M 62.523438 145.773438 C 49.191406 141.925781 39.582031 131.152344 39.582031 118.476562 C 39.582031 102.582031 54.695312 89.675781 73.304688 89.675781 C 91.917969 89.675781 107.027344 102.582031 107.027344 118.476562 C 107.027344 132.25 95.683594 143.777344 80.546875 146.613281 C 73.726562 149.007812 76.558594 155.5 77.710938 157.609375 C 77.785156 157.738281 77.78125 157.898438 77.695312 158.023438 C 77.613281 158.144531 77.464844 158.210938 77.320312 158.1875 C 65.65625 156.554688 63.085938 148.84375 62.523438 145.773438 Z M 62.523438 145.773438 " fill-opacity="1" fill-rule="evenodd"/></g><g clip-path="url(#e66f11a8b2)"><path fill="#f5ede9" d="M 312.273438 145.773438 C 325.605469 141.925781 335.214844 131.152344 335.214844 118.476562 C 335.214844 102.582031 320.105469 89.675781 301.492188 89.675781 C 282.878906 89.675781 267.769531 102.582031 267.769531 118.476562 C 267.769531 132.25 279.113281 143.777344 294.253906 146.613281 C 301.074219 149.007812 298.238281 155.5 297.085938 157.609375 C 297.011719 157.738281 297.019531 157.898438 297.101562 158.023438 C 297.1875 158.144531 297.332031 158.210938 297.480469 158.1875 C 309.144531 156.554688 311.710938 148.84375 312.273438 145.773438 Z M 312.273438 145.773438 " fill-opacity="1" fill-rule="evenodd"/></g><path fill="#eb9c62" d="M 73.304688 112.699219 L 81.539062 104.453125 C 82.367188 103.628906 83.703125 103.628906 84.53125 104.453125 C 85.390625 105.320312 86.472656 106.402344 87.335938 107.265625 C 88.160156 108.09375 88.160156 109.433594 87.335938 110.261719 L 79.105469 118.507812 L 87.335938 126.75 C 88.160156 127.578125 88.160156 128.917969 87.335938 129.746094 C 86.472656 130.609375 85.390625 131.691406 84.53125 132.554688 C 83.703125 133.382812 82.367188 133.382812 81.539062 132.554688 L 73.304688 124.3125 L 65.074219 132.554688 C 64.246094 133.382812 62.910156 133.382812 62.082031 132.554688 C 61.222656 131.691406 60.136719 130.609375 59.277344 129.746094 C 58.449219 128.917969 58.449219 127.578125 59.277344 126.75 L 67.507812 118.507812 L 59.277344 110.261719 C 58.449219 109.433594 58.449219 108.09375 59.277344 107.265625 C 60.136719 106.402344 61.222656 105.320312 62.082031 104.453125 C 62.910156 103.628906 64.246094 103.628906 65.074219 104.453125 Z M 73.304688 112.699219 " fill-opacity="1" fill-rule="evenodd"/><path fill="#81a69b" d="M 299.117188 123.066406 L 310.5625 106.175781 C 310.839844 105.761719 311.273438 105.476562 311.761719 105.382812 C 312.25 105.289062 312.757812 105.394531 313.171875 105.675781 C 314.273438 106.421875 315.746094 107.421875 316.84375 108.171875 C 317.257812 108.453125 317.542969 108.882812 317.636719 109.375 C 317.730469 109.863281 317.625 110.371094 317.347656 110.785156 C 313.84375 115.953125 302.820312 132.226562 302.820312 132.226562 L 302.8125 132.222656 L 302.285156 133 C 302.023438 133.390625 301.617188 133.65625 301.15625 133.746094 C 300.695312 133.832031 300.21875 133.734375 299.832031 133.472656 C 296.449219 131.171875 288.113281 125.507812 284.730469 123.210938 C 284.34375 122.945312 284.074219 122.539062 283.988281 122.078125 C 283.898438 121.617188 283.996094 121.140625 284.257812 120.753906 C 285.035156 119.609375 286.105469 118.027344 286.878906 116.886719 C 287.140625 116.496094 287.550781 116.230469 288.007812 116.140625 C 288.46875 116.054688 288.945312 116.152344 289.332031 116.414062 Z M 299.117188 123.066406 " fill-opacity="1" fill-rule="evenodd"/><path fill="#956368" d="M 190.179688 218.921875 C 190.179688 218.921875 190.425781 189.023438 189.011719 170.347656 C 188.988281 170.027344 188.710938 169.792969 188.394531 169.816406 C 188.078125 169.839844 187.839844 170.117188 187.863281 170.433594 C 189.277344 189.074219 189.03125 218.914062 189.03125 218.914062 C 189.027344 219.230469 189.285156 219.492188 189.601562 219.496094 C 189.917969 219.496094 190.175781 219.242188 190.179688 218.921875 Z M 190.179688 218.921875 " fill-opacity="1" fill-rule="evenodd"/><path fill="#956368" d="M 186.117188 185.703125 C 186.117188 185.988281 186.0625 186.265625 185.957031 186.527344 C 185.847656 186.792969 185.691406 187.023438 185.488281 187.226562 C 185.289062 187.429688 185.054688 187.585938 184.792969 187.695312 C 184.527344 187.804688 184.253906 187.859375 183.96875 187.859375 C 183.683594 187.859375 183.410156 187.804688 183.144531 187.695312 C 182.882812 187.585938 182.648438 187.429688 182.445312 187.226562 C 182.246094 187.023438 182.089844 186.792969 181.980469 186.527344 C 181.871094 186.265625 181.816406 185.988281 181.816406 185.703125 C 181.816406 185.417969 181.871094 185.144531 181.980469 184.878906 C 182.089844 184.617188 182.246094 184.382812 182.445312 184.179688 C 182.648438 183.980469 182.882812 183.824219 183.144531 183.714844 C 183.410156 183.605469 183.683594 183.550781 183.96875 183.550781 C 184.253906 183.550781 184.527344 183.605469 184.792969 183.714844 C 185.054688 183.824219 185.289062 183.980469 185.488281 184.179688 C 185.691406 184.382812 185.847656 184.617188 185.957031 184.878906 C 186.0625 185.144531 186.117188 185.417969 186.117188 185.703125 Z M 186.117188 185.703125 " fill-opacity="1" fill-rule="nonzero"/><path fill="#956368" d="M 186.117188 199.355469 C 186.117188 199.640625 186.0625 199.914062 185.957031 200.179688 C 185.847656 200.441406 185.691406 200.675781 185.488281 200.878906 C 185.289062 201.078125 185.054688 201.234375 184.792969 201.34375 C 184.527344 201.453125 184.253906 201.507812 183.96875 201.507812 C 183.683594 201.507812 183.410156 201.453125 183.144531 201.34375 C 182.882812 201.234375 182.648438 201.078125 182.445312 200.878906 C 182.246094 200.675781 182.089844 200.441406 181.980469 200.179688 C 181.871094 199.914062 181.816406 199.640625 181.816406 199.355469 C 181.816406 199.070312 181.871094 198.792969 181.980469 198.53125 C 182.089844 198.265625 182.246094 198.03125 182.445312 197.832031 C 182.648438 197.628906 182.882812 197.472656 183.144531 197.363281 C 183.410156 197.253906 183.683594 197.199219 183.96875 197.199219 C 184.253906 197.199219 184.527344 197.253906 184.792969 197.363281 C 185.054688 197.472656 185.289062 197.628906 185.488281 197.832031 C 185.691406 198.03125 185.847656 198.265625 185.957031 198.53125 C 186.0625 198.792969 186.117188 199.070312 186.117188 199.355469 Z M 186.117188 199.355469 " fill-opacity="1" fill-rule="nonzero"/><path fill="#956368" d="M 186.117188 213.089844 C 186.117188 213.375 186.0625 213.648438 185.957031 213.914062 C 185.847656 214.175781 185.691406 214.410156 185.488281 214.613281 C 185.289062 214.8125 185.054688 214.96875 184.792969 215.078125 C 184.527344 215.1875 184.253906 215.242188 183.96875 215.242188 C 183.683594 215.242188 183.410156 215.1875 183.144531 215.078125 C 182.882812 214.96875 182.648438 214.8125 182.445312 214.613281 C 182.246094 214.410156 182.089844 214.175781 181.980469 213.914062 C 181.871094 213.648438 181.816406 213.375 181.816406 213.089844 C 181.816406 212.804688 181.871094 212.527344 181.980469 212.265625 C 182.089844 212 182.246094 211.769531 182.445312 211.566406 C 182.648438 211.363281 182.882812 211.207031 183.144531 211.097656 C 183.410156 210.988281 183.683594 210.933594 183.96875 210.933594 C 184.253906 210.933594 184.527344 210.988281 184.792969 211.097656 C 185.054688 211.207031 185.289062 211.363281 185.488281 211.566406 C 185.691406 211.769531 185.847656 212 185.957031 212.265625 C 186.0625 212.527344 186.117188 212.804688 186.117188 213.089844 Z M 186.117188 213.089844 " fill-opacity="1" fill-rule="nonzero"/><path fill="#956368" d="M 224.75 110.253906 C 224.492188 109.496094 224.617188 108.445312 224.707031 107.851562 C 225.386719 103.382812 225.230469 95.71875 222.089844 86.242188 C 220.578125 81.679688 216.730469 73.527344 209.449219 68.457031 C 201.714844 63.0625 191.25 60.066406 179.664062 63.984375 C 179.664062 63.984375 168.128906 64.636719 158.855469 78.597656 C 151.015625 90.394531 152.191406 101.316406 151.339844 108.550781 C 150.484375 115.785156 149.609375 118.96875 143.8125 125.125 C 141.359375 127.734375 139.234375 131.234375 138.476562 133.777344 C 135.757812 142.875 137.105469 148.976562 142.332031 156.289062 C 141.253906 158.777344 139.496094 161.265625 137.742188 164.726562 C 133.878906 172.359375 130.660156 188.628906 147.445312 194.652344 C 147.445312 194.652344 149.09375 195.285156 149.042969 193.898438 C 148.941406 191.132812 147.371094 184.941406 149.53125 181.921875 C 149.53125 181.921875 152.234375 187.289062 153.25 192.25 C 154.03125 196.054688 153.621094 196.800781 155.589844 196.804688 C 157.554688 196.808594 161.308594 195.070312 163.453125 192.511719 C 163.453125 192.511719 164.152344 191.75 165.257812 194.050781 C 166.707031 197.074219 166.914062 198.15625 169.6875 197.199219 C 174.621094 195.5 178.390625 189.277344 176.136719 183.550781 C 173.878906 177.820312 162.558594 162.070312 167.023438 153.757812 L 208.335938 156.707031 C 208.335938 156.707031 212.871094 161.125 208.890625 168.234375 C 204.804688 175.535156 201.394531 178.144531 201.03125 184.847656 C 200.667969 191.554688 205.730469 196.273438 212.058594 197.199219 C 216.023438 197.78125 215.648438 196.925781 215.207031 195.242188 C 214.945312 194.234375 214.796875 192.554688 215.164062 191.746094 C 216.160156 189.589844 215.996094 193.722656 219.488281 195.613281 C 222.984375 197.507812 227.972656 196.832031 228.871094 194.652344 C 229.253906 193.726562 228.394531 193.082031 227.875 191.925781 C 227.171875 190.378906 226.792969 188.171875 228.105469 185.703125 C 230.398438 181.386719 237.203125 174.613281 235.359375 166.269531 C 234.597656 162.820312 233.160156 159.761719 231.878906 156.777344 C 231.742188 154.023438 232.40625 152.148438 233.25 150.175781 C 234.421875 147.4375 235.914062 144.503906 236.246094 139.015625 C 236.710938 131.40625 233.429688 126.730469 228.160156 117.988281 C 226.402344 115.074219 225.328125 111.945312 224.75 110.253906 Z M 140.121094 136.269531 C 138.421875 142.53125 139.023438 149.238281 142.832031 154.984375 C 143.582031 152.679688 143.664062 150.230469 142.542969 146.894531 C 141.421875 143.554688 140.335938 139.871094 140.121094 136.269531 Z M 224.035156 112.886719 C 223.976562 115.707031 224.257812 117.488281 226.632812 122.566406 C 230.285156 130.378906 231.765625 135.480469 229.738281 143.660156 C 228.789062 147.480469 229.554688 150.847656 230.828125 154.203125 C 231.054688 152.542969 231.582031 151.15625 232.195312 149.722656 C 233.324219 147.078125 234.777344 144.246094 235.097656 138.945312 C 235.546875 131.566406 232.289062 127.0625 227.175781 118.585938 C 225.847656 116.382812 224.796875 114.964844 224.035156 112.886719 Z M 224.035156 112.886719 " fill-opacity="1" fill-rule="evenodd"/><path fill="#f5c2a9" d="M 181.816406 76.636719 C 181.816406 76.636719 167.328125 86.613281 162.75 97.039062 L 162.828125 104.183594 C 162.828125 104.183594 159.324219 102.699219 157.5625 107.261719 C 155.796875 111.824219 159.964844 119.96875 163.882812 119.5625 C 163.882812 119.5625 166.335938 131.582031 174.328125 137.214844 C 174.328125 137.214844 175.460938 152.050781 166.898438 154 C 166.898438 154 179.621094 173.851562 189.03125 174.046875 C 197.488281 174.222656 208.335938 156.707031 208.335938 156.707031 C 208.335938 156.707031 200.226562 150.269531 201.964844 136.902344 C 201.964844 136.902344 209.050781 130.933594 211.238281 119.5625 C 211.238281 119.5625 215.203125 120.238281 217.203125 114.691406 C 219.199219 109.144531 218 103.238281 212.789062 105.347656 L 212.496094 99.621094 C 212.496094 99.621094 203.78125 97.136719 198.105469 92.019531 C 198.105469 92.019531 199.042969 95.125 196.492188 94.933594 C 193.941406 94.738281 190.40625 90.957031 189.03125 87.214844 C 189.03125 87.214844 190.136719 93.078125 189.03125 93.761719 C 187.921875 94.449219 180.207031 90.066406 181.816406 76.636719 Z M 181.816406 76.636719 " fill-opacity="1" fill-rule="evenodd"/><path fill="#eb9c62" d="M 175.230469 138.65625 C 175.230469 138.65625 181.613281 143.660156 188.382812 143.929688 C 190.5625 144.019531 193.03125 143.113281 195.207031 141.976562 C 198.386719 140.3125 200.929688 138.175781 200.929688 138.175781 C 201.171875 137.96875 201.203125 137.605469 201 137.363281 C 200.796875 137.121094 200.433594 137.089844 200.191406 137.292969 C 200.191406 137.292969 197.738281 139.351562 194.671875 140.957031 C 192.679688 142 190.425781 142.859375 188.429688 142.78125 C 181.996094 142.523438 175.941406 137.753906 175.941406 137.753906 C 175.691406 137.554688 175.328125 137.597656 175.132812 137.847656 C 174.9375 138.097656 174.980469 138.460938 175.230469 138.65625 Z M 175.230469 138.65625 " fill-opacity="1" fill-rule="evenodd"/><path fill="#eb9c62" d="M 212.125 106.414062 C 212.125 106.414062 211.609375 114.882812 210.96875 118.027344 C 210.90625 118.339844 211.105469 118.640625 211.417969 118.707031 C 211.730469 118.769531 212.03125 118.570312 212.097656 118.257812 C 212.746094 115.070312 213.273438 106.484375 213.273438 106.484375 C 213.292969 106.167969 213.050781 105.890625 212.734375 105.875 C 212.417969 105.855469 212.144531 106.097656 212.125 106.414062 Z M 212.125 106.414062 " fill-opacity="1" fill-rule="evenodd"/><path fill="#eb9c62" d="M 162.09375 105.414062 C 162.09375 105.414062 162.753906 115.472656 163.296875 118.253906 C 163.355469 118.5625 163.65625 118.769531 163.96875 118.707031 C 164.28125 118.648438 164.484375 118.34375 164.421875 118.03125 C 163.886719 115.285156 163.242188 105.339844 163.242188 105.339844 C 163.222656 105.023438 162.949219 104.78125 162.632812 104.800781 C 162.3125 104.824219 162.074219 105.097656 162.09375 105.414062 Z M 162.09375 105.414062 " fill-opacity="1" fill-rule="evenodd"/><path fill="#956368" d="M 182.035156 127.238281 C 182.035156 127.238281 189.191406 130.488281 196.445312 125.828125 C 196.714844 125.65625 196.789062 125.300781 196.621094 125.03125 C 196.449219 124.765625 196.09375 124.6875 195.824219 124.859375 C 189.117188 129.164062 182.507812 126.1875 182.507812 126.1875 C 182.21875 126.058594 181.878906 126.1875 181.746094 126.476562 C 181.617188 126.765625 181.746094 127.109375 182.035156 127.238281 Z M 182.035156 127.238281 " fill-opacity="1" fill-rule="evenodd"/><path fill="#956368" d="M 187.054688 106.460938 C 187.054688 106.460938 187.125 109.875 185.960938 113.210938 C 185.476562 114.59375 184.964844 115.8125 184.769531 116.808594 C 184.609375 117.617188 184.660156 118.300781 184.972656 118.84375 C 185.242188 119.308594 185.710938 119.695312 186.484375 119.941406 C 187.128906 120.144531 188.011719 120.257812 189.203125 120.257812 C 189.523438 120.257812 189.777344 120 189.777344 119.683594 C 189.777344 119.367188 189.519531 119.109375 189.203125 119.109375 C 188.167969 119.109375 187.394531 119.019531 186.832031 118.84375 C 186.402344 118.707031 186.117188 118.523438 185.96875 118.265625 C 185.777344 117.9375 185.800781 117.519531 185.898438 117.03125 C 186.085938 116.078125 186.582031 114.914062 187.042969 113.589844 C 188.28125 110.054688 188.203125 106.433594 188.203125 106.433594 C 188.195312 106.117188 187.933594 105.867188 187.617188 105.875 C 187.300781 105.878906 187.046875 106.144531 187.054688 106.460938 Z M 187.054688 106.460938 " fill-opacity="1" fill-rule="evenodd"/><path fill="#956368" d="M 172 99.988281 C 172 99.988281 175.066406 97.007812 179.691406 98.472656 C 179.996094 98.566406 180.316406 98.398438 180.414062 98.09375 C 180.507812 97.792969 180.34375 97.46875 180.039062 97.375 C 174.714844 95.691406 171.195312 99.164062 171.195312 99.164062 C 170.96875 99.386719 170.964844 99.753906 171.1875 99.980469 C 171.410156 100.207031 171.773438 100.210938 172 99.988281 Z M 172 99.988281 " fill-opacity="1" fill-rule="evenodd"/><path fill="#956368" d="M 204.804688 99.164062 C 204.804688 99.164062 201.289062 95.691406 195.960938 97.375 C 195.660156 97.46875 195.492188 97.792969 195.585938 98.09375 C 195.683594 98.398438 196.003906 98.566406 196.308594 98.472656 C 200.933594 97.007812 204 99.988281 204 99.988281 C 204.226562 100.210938 204.589844 100.207031 204.8125 99.980469 C 205.035156 99.753906 205.03125 99.386719 204.804688 99.164062 Z M 204.804688 99.164062 " fill-opacity="1" fill-rule="evenodd"/><path fill="#956368" d="M 178.222656 105.210938 C 178.222656 105.582031 178.175781 105.941406 178.078125 106.289062 C 177.984375 106.632812 177.847656 106.9375 177.671875 107.203125 C 177.496094 107.464844 177.292969 107.667969 177.0625 107.8125 C 176.832031 107.957031 176.589844 108.027344 176.34375 108.027344 C 176.09375 108.027344 175.851562 107.957031 175.621094 107.8125 C 175.394531 107.667969 175.1875 107.464844 175.011719 107.203125 C 174.835938 106.9375 174.699219 106.632812 174.605469 106.289062 C 174.511719 105.941406 174.460938 105.582031 174.460938 105.210938 C 174.460938 104.835938 174.511719 104.476562 174.605469 104.132812 C 174.699219 103.785156 174.835938 103.480469 175.011719 103.21875 C 175.1875 102.953125 175.394531 102.75 175.621094 102.609375 C 175.851562 102.464844 176.09375 102.394531 176.34375 102.394531 C 176.589844 102.394531 176.832031 102.464844 177.0625 102.609375 C 177.292969 102.75 177.496094 102.953125 177.671875 103.21875 C 177.847656 103.480469 177.984375 103.785156 178.078125 104.132812 C 178.175781 104.476562 178.222656 104.835938 178.222656 105.210938 Z M 178.222656 105.210938 " fill-opacity="1" fill-rule="nonzero"/><path fill="#956368" d="M 201.539062 105.210938 C 201.539062 105.582031 201.488281 105.941406 201.394531 106.289062 C 201.300781 106.632812 201.164062 106.9375 200.988281 107.203125 C 200.8125 107.464844 200.609375 107.667969 200.378906 107.8125 C 200.148438 107.957031 199.90625 108.027344 199.65625 108.027344 C 199.410156 108.027344 199.167969 107.957031 198.9375 107.8125 C 198.707031 107.667969 198.503906 107.464844 198.328125 107.203125 C 198.152344 106.9375 198.015625 106.632812 197.921875 106.289062 C 197.824219 105.941406 197.777344 105.582031 197.777344 105.210938 C 197.777344 104.835938 197.824219 104.476562 197.921875 104.132812 C 198.015625 103.785156 198.152344 103.480469 198.328125 103.21875 C 198.503906 102.953125 198.707031 102.75 198.9375 102.609375 C 199.167969 102.464844 199.410156 102.394531 199.65625 102.394531 C 199.90625 102.394531 200.148438 102.464844 200.378906 102.609375 C 200.609375 102.75 200.8125 102.953125 200.988281 103.21875 C 201.164062 103.480469 201.300781 103.785156 201.394531 104.132812 C 201.488281 104.476562 201.539062 104.835938 201.539062 105.210938 Z M 201.539062 105.210938 " fill-opacity="1" fill-rule="nonzero"/></svg>